<svg width="32" height="32" viewBox="0 0 32 32" fill="none" xmlns="http://www.w3.org/2000/svg">
<rect width="32" height="32" fill="#F2F2F2"/>
<g id="2_About_Personal_1440" clip-path="url(#clip0_0_1)">
<rect width="1440" height="4656" transform="translate(-177 -3839)" fill="white"/>
<rect id="bg" x="-177" y="-3439" width="1440" height="19680" fill="#FDF0E9"/>
<rect id="Rectangle" x="-177" y="17" width="1440" height="336" fill="#F9E5DA"/>
<path id="Star" d="M16 53L-1.70936 87.8497L-1.19476 48.7619L-33.0711 71.3898L-14.4504 37.0184L-53.1912 42.2408L-20.7302 20.4599L-57.4605 7.08028L-18.5956 2.87962L-44.9008 -26.0368L-8.53554 -11.6949L-18.3895 -49.5237L7.14532 -19.9248L16 -58L24.8547 -19.9248L50.3895 -49.5237L40.5355 -11.6949L76.9008 -26.0368L50.5956 2.87962L89.4604 7.08028L52.7302 20.4599L85.1912 42.2408L46.4504 37.0184L65.0711 71.3898L33.1948 48.7619L33.7094 87.8497L16 53Z" fill="#EF6D58"/>
<path id="Shape" fill-rule="evenodd" clip-rule="evenodd" d="M6 5C6 2.23858 8.23858 0 11 0C13.7614 0 16 2.23858 16 5C16 2.23858 18.2386 0 21 0C23.7614 0 26 2.23858 26 5V5.012C26 5.152 26 5.552 25.924 6H30C31.1046 6 32 6.89543 32 8V10C32 11.1046 31.1046 12 30 12H2C0.89543 12 0 11.1046 0 10V8C0 6.89543 0.89543 6 2 6H6.076C6.02317 5.67336 5.99775 5.34288 6 5.012V5ZM8.136 6H14V5C14 3.9282 13.4282 2.93782 12.5 2.40192C11.5718 1.86603 10.4282 1.86603 9.5 2.40192C8.5718 2.93782 8 3.9282 8 5C8 5.17 8.004 5.548 8.09 5.86C8.10202 5.90769 8.11739 5.95447 8.136 6ZM23.864 6H18V5C18 3.34315 19.3431 2 21 2C22.6569 2 24 3.34315 24 5C24 5.17 23.996 5.548 23.91 5.86C23.8978 5.90763 23.8824 5.95439 23.864 6ZM30 14V29C30 30.6569 28.6569 32 27 32H18V14H30ZM2 29C2 30.6569 3.34315 32 5 32H14V14H2V29Z" fill="white"/>
</g>
<defs>
<clipPath id="clip0_0_1">
<rect width="1440" height="4656" fill="white" transform="translate(-177 -3839)"/>
</clipPath>
</defs>
</svg>
